<?xml version="1.0" standalone="no"?>
<!DOCTYPE svg PUBLIC "-//W3C//DTD SVG 20010904//EN"
 "http://www.w3.org/TR/2001/REC-SVG-20010904/DTD/svg10.dtd">
<svg version="1.0" xmlns="http://www.w3.org/2000/svg"
 width="400.000000pt" height="294.000000pt" viewBox="0 0 400.000000 294.000000"
 preserveAspectRatio="xMidYMid meet">

<g transform="translate(0.000000,294.000000) scale(0.100000,-0.100000)"
fill="#000000" stroke="none">
<path d="M90 2730 l0 -120 120 0 120 0 0 120 0 120 -120 0 -120 0 0 -120z
m218 -3 l3 -98 -98 3 -98 3 -3 89 c-2 61 1 92 9 97 7 4 51 6 98 6 l86 -2 3
-98z"/>
<path d="M360 2730 l0 -120 120 0 120 0 0 120 0 120 -120 0 -120 0 0 -120z
m215 77 c3 -12 5 -56 3 -97 l-3 -75 -97 -3 -98 -3 0 94 c0 52 3 97 7 100 3 4
46 7 94 7 84 0 89 -1 94 -23z"/>
<path d="M474 2735 c1 -46 16 -46 16 0 0 19 -4 35 -8 35 -5 0 -8 -16 -8 -35z"/>
<path d="M620 2730 l0 -120 120 0 120 0 0 120 0 120 -120 0 -120 0 0 -120z
m220 -6 l0 -94 -95 0 -95 0 0 95 0 94 88 3 c48 2 90 2 95 0 4 -2 7 -46 7 -98z"/>
<path d="M733 2763 c21 -6 22 -21 0 -45 -15 -17 -15 -18 8 -17 13 0 18 3 11 6
-10 4 -10 9 3 23 20 23 12 40 -18 39 -17 -1 -18 -2 -4 -6z"/>
<path d="M890 2730 l0 -120 120 0 120 0 0 120 0 120 -120 0 -120 0 0 -120z
m188 94 l33 -5 -3 -92 -3 -92 -97 -3 -98 -3 0 95 c0 66 4 96 13 99 17 6 116 7
155 1z"/>
<path d="M1016 2755 c4 -9 0 -15 -7 -15 -10 0 -10 -3 -3 -8 6 -4 13 -14 16
-22 3 -8 6 2 6 23 0 20 -4 37 -9 37 -4 0 -6 -7 -3 -15z"/>
<path d="M1160 2730 l0 -120 118 0 117 0 -3 120 -3 120 -115 0 -114 0 0 -120z
m210 0 l0 -100 -95 0 -95 0 0 100 0 100 95 0 95 0 0 -100z"/>
<path d="M1275 2760 c-3 -5 1 -10 9 -10 9 0 16 5 16 10 0 6 -4 10 -9 10 -6 0
-13 -4 -16 -10z"/>
<path d="M1255 2730 c-3 -5 -1 -10 4 -10 6 0 11 5 11 10 0 6 -2 10 -4 10 -3 0
-8 -4 -11 -10z"/>
<path d="M1284 2729 c-3 -6 -1 -16 5 -22 8 -8 11 -5 11 11 0 24 -5 28 -16 11z"/>
<path d="M1420 2730 l0 -120 120 0 120 0 0 120 0 120 -120 0 -120 0 0 -120z
m220 0 l0 -100 -100 0 -100 0 0 93 c0 52 3 97 7 100 3 4 48 7 100 7 l93 0 0
-100z"/>
<path d="M1538 2763 c7 -3 16 -2 19 1 4 3 -2 6 -13 5 -11 0 -14 -3 -6 -6z"/>
<path d="M1547 2720 c3 -11 9 -17 14 -15 10 7 1 35 -11 35 -5 0 -6 -9 -3 -20z"/>
<path d="M1690 2730 l0 -120 120 0 120 0 0 120 0 120 -120 0 -120 0 0 -120z
m213 87 c2 -7 4 -51 3 -97 l-1 -85 -97 -3 -98 -3 0 95 c0 66 4 96 13 99 6 3
49 6 93 6 58 1 83 -3 87 -12z"/>
<path d="M1792 2758 c-14 -14 -16 -44 -4 -52 5 -3 8 5 7 17 -1 12 2 28 8 35
12 15 5 16 -11 0z"/>
<path d="M1815 2730 c3 -5 8 -10 11 -10 2 0 4 5 4 10 0 6 -5 10 -11 10 -5 0
-7 -4 -4 -10z"/>
<path d="M1960 2848 c0 -2 -1 -56 -3 -121 l-2 -117 118 0 117 0 0 120 0 120
-115 0 c-63 0 -115 -1 -115 -2z m208 -120 l3 -98 -96 0 -95 0 0 93 c0 52 3 97
7 101 4 4 46 5 93 4 l85 -3 3 -97z"/>
<path d="M2050 2766 c0 -2 11 -6 25 -8 14 -3 25 -1 25 3 0 5 -11 9 -25 9 -14
0 -25 -2 -25 -4z"/>
<path d="M2070 2725 c-7 -9 -10 -18 -7 -21 3 -3 10 4 17 15 13 25 8 27 -10 6z"/>
<path d="M2220 2730 l0 -120 120 0 120 0 0 120 0 120 -120 0 -120 0 0 -120z
m218 -2 l-3 -93 -95 0 -95 0 -3 93 -3 92 101 0 101 0 -3 -92z"/>
<path d="M2328 2763 c-3 -4 -5 -21 -5 -38 0 -16 1 -22 4 -12 5 18 15 22 26 10
4 -3 2 -12 -5 -20 -8 -10 -8 -12 4 -8 21 8 16 69 -5 73 -8 2 -17 -1 -19 -5z
m22 -13 c0 -5 -4 -10 -10 -10 -5 0 -10 5 -10 10 0 6 5 10 10 10 6 0 10 -4 10
-10z"/>
<path d="M2490 2730 l0 -120 120 0 119 0 -1 120 -1 120 -119 0 -118 0 0 -120z
m208 -2 l3 -98 -96 0 -95 0 0 94 c0 66 4 96 13 99 6 3 48 5 92 4 l80 -2 3 -97z"/>
<path d="M2584 2755 c-7 -17 3 -35 19 -35 8 0 8 3 -1 12 -17 17 -15 28 4 28
12 0 15 -7 12 -30 -5 -34 7 -41 17 -10 12 37 -38 70 -51 35z"/>
<path d="M2750 2730 l0 -120 120 0 120 0 0 120 0 120 -120 0 -120 0 0 -120z
m220 0 l0 -100 -100 0 -100 0 0 93 c0 52 3 97 7 100 3 4 48 7 100 7 l93 0 0
-100z"/>
<path d="M2852 2753 c-5 -10 -6 -27 -1 -38 6 -16 8 -14 8 13 1 22 6 32 17 32
12 0 15 -7 12 -30 -3 -19 -1 -27 5 -21 14 14 4 55 -15 59 -9 2 -21 -5 -26 -15z"/>
<path d="M3020 2730 l0 -120 120 0 120 0 0 120 0 120 -120 0 -120 0 0 -120z
m218 -2 l3 -98 -101 0 -100 0 0 93 c0 52 3 97 7 101 4 4 48 5 98 4 l90 -3 3
-97z"/>
<path d="M3285 2730 l0 -120 118 0 117 0 0 120 0 120 -117 0 -118 0 0 -120z
m215 0 l0 -100 -95 0 -95 0 0 100 0 100 95 0 95 0 0 -100z"/>
<path d="M3402 2700 c0 -14 2 -19 5 -12 2 6 2 18 0 25 -3 6 -5 1 -5 -13z"/>
<path d="M440 2460 l0 -120 120 0 120 0 0 120 0 120 -120 0 -120 0 0 -120z
m210 0 l0 -100 -95 0 -95 0 0 100 0 100 95 0 95 0 0 -100z"/>
<path d="M534 2465 c-7 -18 3 -35 21 -35 7 0 16 -6 18 -12 3 -7 6 4 6 25 1 20
-3 37 -8 37 -5 0 -7 -9 -4 -20 4 -14 0 -20 -12 -20 -12 0 -16 6 -12 20 6 23
-1 27 -9 5z"/>
<path d="M700 2460 l0 -120 120 0 120 0 0 120 0 120 -120 0 -120 0 0 -120z
m218 3 l-3 -98 -90 0 -90 0 -3 98 -3 97 96 0 96 0 -3 -97z"/>
<path d="M800 2473 c0 -6 3 -19 6 -28 5 -13 9 -14 15 -4 6 10 11 10 23 0 13
-11 17 -10 22 5 4 11 10 24 12 29 3 6 -1 4 -10 -3 -13 -10 -17 -10 -21 0 -4
10 -8 10 -16 -2 -10 -13 -12 -13 -21 0 -6 9 -10 10 -10 3z"/>
<path d="M970 2460 l0 -120 120 0 120 0 0 120 0 120 -120 0 -120 0 0 -120z
m215 0 l0 -95 -95 0 -95 0 -3 98 -3 98 98 -3 98 -3 0 -95z"/>
<path d="M1070 2455 c0 -14 4 -25 9 -25 4 0 6 11 3 25 -2 14 -6 25 -8 25 -2 0
-4 -11 -4 -25z"/>
<path d="M1095 2470 c3 -5 8 -10 11 -10 2 0 4 5 4 10 0 6 -5 10 -11 10 -5 0
-7 -4 -4 -10z"/>
<path d="M1240 2460 l0 -120 115 0 115 0 0 120 0 120 -115 0 -115 0 0 -120z
m210 0 l0 -100 -95 0 -95 0 0 100 0 100 95 0 95 0 0 -100z"/>
<path d="M1341 2453 c0 -16 3 -22 6 -13 3 8 10 21 16 28 7 8 5 12 -7 12 -11 0
-16 -8 -15 -27z"/>
<path d="M1500 2460 l0 -120 120 0 120 0 0 120 0 120 -120 0 -120 0 0 -120z
m220 0 l0 -101 -97 3 -98 3 -3 98 -3 97 101 0 100 0 0 -100z"/>
<path d="M1610 2466 c0 -35 15 -40 16 -5 1 16 -3 29 -7 29 -5 0 -9 -11 -9 -24z"/>
<path d="M1770 2460 l0 -120 118 0 118 0 2 120 1 120 -119 0 -120 0 0 -120z
m210 0 l0 -101 -92 3 -93 3 -3 98 -3 97 96 0 95 0 0 -100z"/>
<path d="M1870 2462 c6 -13 9 -31 6 -40 -5 -13 -2 -12 9 2 15 19 22 46 8 33
-3 -4 -12 1 -20 11 -13 15 -13 14 -3 -6z"/>
<path d="M2030 2460 l0 -120 120 0 120 0 0 120 0 120 -120 0 -120 0 0 -120z
m218 3 l-3 -98 -95 0 -95 0 -1 50 c-1 28 0 71 3 98 l5 47 94 0 95 0 -3 -97z"/>
<path d="M2131 2458 c-1 -22 4 -28 18 -28 11 0 23 5 27 11 4 7 0 9 -14 5 -16
-5 -21 -2 -25 16 -4 20 -4 20 -6 -4z"/>
<path d="M2300 2460 l0 -120 120 0 120 0 0 120 0 120 -120 0 -120 0 0 -120z
m215 77 c3 -12 5 -56 3 -97 l-3 -75 -95 0 -95 0 -3 98 -3 97 95 0 c91 0 96 -1
101 -23z"/>
<path d="M2412 2455 c0 -16 2 -22 5 -12 2 9 2 23 0 30 -3 6 -5 -1 -5 -18z"/>
<path d="M2565 2563 c2 -10 4 -64 4 -120 l1 -103 115 0 115 0 0 120 0 120
-119 0 c-108 0 -119 -2 -116 -17z m213 -100 l-3 -98 -90 0 -90 0 -3 98 -3 97
96 0 96 0 -3 -97z"/>
<path d="M2663 2464 c-3 -8 -2 -19 3 -24 5 -5 9 1 9 16 0 28 -3 30 -12 8z"/>
<path d="M2695 2455 c0 -13 3 -21 8 -18 4 2 7 10 7 18 0 8 -3 16 -7 18 -5 3
-8 -5 -8 -18z"/>
<path d="M2830 2460 l0 -120 120 0 120 0 0 120 0 120 -120 0 -120 0 0 -120z
m220 0 l0 -100 -100 0 -100 0 0 100 0 100 100 0 100 0 0 -100z"/>
<path d="M2930 2443 c0 -21 4 -33 8 -27 4 6 15 13 25 17 9 3 17 16 17 27 0 15
-7 20 -25 20 -22 0 -25 -4 -25 -37z m40 12 c0 -8 -7 -15 -15 -15 -8 0 -15 7
-15 15 0 8 7 15 15 15 8 0 15 -7 15 -15z"/>
<path d="M3100 2460 l0 -120 120 0 121 0 -2 120 -1 120 -119 0 -119 0 0 -120z
m210 0 l0 -100 -95 0 -95 0 0 100 0 100 95 0 95 0 0 -100z"/>
<path d="M3360 2460 l0 -120 120 0 120 0 0 120 0 120 -120 0 -120 0 0 -120z
m220 0 l0 -101 -97 3 -98 3 -3 84 c-2 46 -1 90 2 98 4 9 30 13 101 13 l95 0 0
-100z"/>
<path d="M3630 2460 l0 -120 120 0 120 0 0 120 0 120 -120 0 -120 0 0 -120z
m218 3 l-3 -98 -95 0 -95 0 -3 98 -3 97 101 0 101 0 -3 -97z"/>
<path d="M800 2199 l0 -119 88 -1 c48 0 102 -1 120 -2 l32 -2 0 120 0 120
-120 2 -120 1 0 -119z m220 -4 l0 -95 -100 0 -100 0 0 95 0 95 100 0 100 0 0
-95z"/>
<path d="M904 2209 c-4 -7 1 -16 12 -22 17 -10 17 -11 -1 -18 -16 -6 -17 -8
-3 -8 22 -1 34 19 18 29 -7 4 -9 13 -6 19 4 6 3 11 -3 11 -5 0 -13 -5 -17 -11z"/>
<path d="M1070 2195 l0 -120 120 3 121 3 -3 116 -3 117 -117 0 -118 1 0 -120z
m212 16 c5 -118 11 -111 -98 -111 l-94 0 0 95 0 95 94 0 94 0 4 -79z"/>
<path d="M1203 2200 c0 -25 2 -35 4 -22 2 12 2 32 0 45 -2 12 -4 2 -4 -23z"/>
<path d="M1166 2205 c-7 -19 3 -45 16 -45 6 0 5 6 -2 15 -10 12 -10 18 0 30 7
9 8 15 2 15 -5 0 -12 -7 -16 -15z"/>
<path d="M2400 2197 l0 -122 102 2 c57 1 111 2 121 3 16 0 17 11 15 118 l-3
117 -117 2 -118 2 0 -122z m212 77 c2 -9 2 -52 0 -95 l-4 -79 -94 0 -94 0 0
95 0 95 94 0 c79 0 95 -3 98 -16z"/>
<path d="M2502 2200 c-1 -29 1 -40 7 -31 6 9 11 10 15 2 4 -6 12 -11 18 -11 7
0 6 5 -2 15 -7 8 -9 22 -6 31 5 14 4 15 -8 5 -12 -10 -15 -8 -19 11 -2 13 -5
3 -5 -22z"/>
<path d="M2723 2312 l-63 -3 0 -114 0 -114 120 -3 120 -3 0 120 0 120 -57 0
c-32 0 -86 -1 -120 -3z m157 -117 l0 -95 -95 0 c-77 0 -95 3 -96 15 0 8 0 40
0 70 0 118 -12 105 96 105 l95 0 0 -95z"/>
<path d="M540 2195 l0 -115 114 0 115 0 3 28 c2 15 2 66 0 115 l-3 87 -115 0
-114 0 0 -115z m210 0 l0 -95 -95 0 -95 0 0 95 0 95 95 0 95 0 0 -95z"/>
<path d="M660 2190 c0 -11 4 -20 9 -20 5 0 7 9 4 20 -3 11 -7 20 -9 20 -2 0
-4 -9 -4 -20z"/>
<path d="M1330 2195 l0 -115 120 0 120 0 0 115 0 115 -120 0 -120 0 0 -115z
m220 0 l0 -95 -98 0 -97 0 -2 86 c-2 48 0 90 3 95 3 5 48 9 100 9 l94 0 0 -95z"/>
<path d="M1447 2233 c-4 -3 -7 -15 -7 -26 0 -25 9 -17 15 12 4 22 2 25 -8 14z"/>
<path d="M1600 2195 l0 -115 120 0 120 0 0 115 0 115 -120 0 -120 0 0 -115z
m220 0 l0 -95 -100 0 -100 0 0 95 0 95 100 0 100 0 0 -95z"/>
<path d="M1700 2205 c-11 -13 -11 -18 0 -28 10 -9 11 -9 6 1 -4 7 -2 19 4 27
7 8 10 15 7 15 -2 0 -10 -7 -17 -15z"/>
<path d="M1732 2170 c0 -14 2 -19 5 -12 2 6 2 18 0 25 -3 6 -5 1 -5 -13z"/>
<path d="M1870 2195 l0 -115 118 0 117 0 -3 115 -3 115 -115 0 -114 0 0 -115z
m210 0 l0 -95 -95 0 -95 0 0 95 0 95 95 0 95 0 0 -95z"/>
<path d="M1961 2205 c0 -35 2 -37 11 -19 7 15 7 28 -1 40 -9 16 -10 12 -10
-21z"/>
<path d="M1991 2213 c0 -4 4 -17 9 -28 8 -19 9 -19 9 2 1 12 -3 25 -9 28 -5 3
-10 3 -9 -2z"/>
<path d="M2130 2195 l0 -115 120 0 120 0 0 115 0 115 -120 0 -120 0 0 -115z
m220 0 l0 -96 -97 3 -98 3 -3 79 c-2 44 -1 85 2 93 4 9 30 13 101 13 l95 0 0
-95z"/>
<path d="M2242 2160 c0 -14 2 -19 5 -12 2 6 2 18 0 25 -3 6 -5 1 -5 -13z"/>
<path d="M2930 2195 l0 -115 120 0 120 0 0 115 0 115 -120 0 -120 0 0 -115z
m220 0 l0 -95 -100 0 -100 0 0 95 0 95 100 0 100 0 0 -95z"/>
<path d="M3030 2190 c0 -11 2 -20 4 -20 2 0 6 9 9 20 3 11 1 20 -4 20 -5 0 -9
-9 -9 -20z"/>
<path d="M3200 2195 l0 -115 115 0 115 0 0 115 0 115 -115 0 -115 0 0 -115z
m210 0 l0 -95 -95 0 -95 0 0 95 0 95 95 0 95 0 0 -95z"/>
<path d="M240 1930 l0 -120 195 0 195 0 0 120 0 120 -195 0 -195 0 0 -120z
m362 88 c2 -7 4 -51 3 -98 l0 -85 -172 -3 -173 -2 0 93 c0 52 3 97 7 100 3 4
79 7 169 7 121 0 163 -3 166 -12z"/>
<path d="M512 1967 c-7 -9 -8 -23 -3 -43 7 -22 10 -24 11 -9 1 11 3 30 4 43 3
26 2 26 -12 9z"/>
<path d="M402 1935 c0 -22 3 -30 5 -17 2 12 8 22 13 22 5 0 11 -10 13 -22 4
-20 4 -19 6 5 1 17 -4 27 -13 27 -8 0 -17 6 -19 13 -3 6 -5 -6 -5 -28z"/>
<path d="M550 1932 c0 -18 4 -32 8 -32 9 0 8 47 -1 57 -4 3 -7 -8 -7 -25z"/>
<path d="M340 1939 c0 -14 28 -41 33 -32 2 5 -4 16 -15 26 -10 9 -18 12 -18 6z"/>
<path d="M472 1925 c0 -16 2 -22 5 -12 2 9 2 23 0 30 -3 6 -5 -1 -5 -18z"/>
<path d="M652 1930 l-2 -120 120 0 120 0 0 120 0 120 -118 0 -118 0 -2 -120z
m216 -2 l3 -98 -96 0 -95 0 0 100 0 101 93 -3 92 -3 3 -97z"/>
<path d="M768 1943 c10 -4 9 -9 -4 -24 -9 -10 -14 -19 -9 -19 9 0 34 31 35 43
0 4 -8 7 -17 6 -12 0 -13 -2 -5 -6z"/>
<path d="M920 1930 l0 -120 120 0 120 0 0 120 0 120 -120 0 -120 0 0 -120z
m215 0 l0 -95 -95 0 -95 0 -3 89 c-2 65 1 92 10 98 7 4 51 7 98 6 l85 -3 0
-95z"/>
<path d="M1024 1925 c0 -11 8 -21 16 -21 8 0 16 10 16 21 1 14 -4 21 -16 21
-12 0 -17 -7 -16 -21z"/>
<path d="M1190 1930 l0 -120 118 0 117 0 -2 117 -2 118 -115 3 -116 3 0 -121z
m210 0 l0 -100 -95 0 -95 0 0 100 0 100 95 0 95 0 0 -100z"/>
<path d="M1284 1935 c-6 -16 2 -35 16 -35 5 0 7 7 3 16 -3 9 0 20 8 25 11 7
10 9 -4 9 -10 0 -20 -7 -23 -15z"/>
<path d="M1450 1930 l0 -120 120 0 120 0 0 120 0 120 -120 0 -120 0 0 -120z
m220 0 l0 -100 -100 0 -100 0 0 100 0 100 100 0 100 0 0 -100z"/>
<path d="M1552 1925 c14 -32 22 -32 37 3 10 23 10 25 -2 10 -17 -22 -27 -23
-27 -3 0 8 -4 15 -10 15 -6 0 -5 -10 2 -25z"/>
<path d="M1720 1930 l0 -120 120 0 120 0 0 120 0 120 -120 0 -120 0 0 -120z
m218 -2 l3 -98 -100 0 -101 0 0 100 0 101 98 -3 97 -3 3 -97z"/>
<path d="M1823 1935 c0 -22 2 -30 4 -17 2 12 2 30 0 40 -3 9 -5 -1 -4 -23z"/>
<path d="M1850 1935 c6 -8 8 -20 4 -27 -5 -10 -4 -10 6 -1 14 13 7 43 -11 43
-8 0 -8 -4 1 -15z"/>
<path d="M1981 1930 l-2 -120 121 0 120 0 0 120 0 120 -119 0 -119 0 -1 -120z
m219 0 l0 -100 -94 0 c-109 0 -103 -8 -98 116 l3 84 95 0 94 0 0 -100z"/>
<path d="M2081 1920 l0 -25 10 24 c6 15 14 21 25 17 8 -3 12 -2 9 3 -3 6 -14
9 -25 8 -15 -1 -20 -8 -19 -27z"/>
<path d="M2250 1930 l0 -120 120 0 120 0 0 120 0 120 -120 0 -120 0 0 -120z
m215 0 l0 -95 -95 0 -95 0 -3 84 c-2 46 0 90 2 98 4 11 27 13 98 11 l93 -3 0
-95z"/>
<path d="M2352 1925 c0 -16 2 -22 5 -12 2 9 2 23 0 30 -3 6 -5 -1 -5 -18z"/>
<path d="M2378 1922 c5 -26 5 -26 13 -4 11 28 26 28 32 0 4 -20 4 -20 6 4 1
23 -3 27 -27 26 -25 -1 -28 -4 -24 -26z"/>
<path d="M2518 1930 l-3 -120 122 0 121 0 1 120 0 120 -119 0 -119 0 -3 -120z
m210 -2 l3 -98 -96 0 -95 0 0 93 c0 52 3 97 7 101 4 4 46 5 93 4 l85 -3 3 -97z"/>
<path d="M2631 1894 c0 -11 3 -14 6 -6 3 7 2 16 -1 19 -3 4 -6 -2 -5 -13z"/>
<path d="M2780 1930 l0 -120 120 0 120 0 0 120 0 120 -120 0 -120 0 0 -120z
m220 0 l0 -101 -97 3 -98 3 -3 84 c-2 46 -1 90 2 98 4 9 30 13 101 13 l95 0 0
-100z"/>
<path d="M3050 1930 l0 -120 120 0 120 0 0 120 0 120 -120 0 -120 0 0 -120z
m217 -2 l2 -98 -99 0 -100 0 0 100 0 101 98 -3 97 -3 2 -97z"/>
<path d="M3312 1930 l1 -120 193 0 194 0 0 120 0 120 -194 0 -194 0 0 -120z
m368 0 l0 -100 -172 2 -172 3 1 33 c1 17 2 61 2 97 l1 65 170 0 170 0 0 -100z"/>
<path d="M3587 1973 c-4 -3 -7 -22 -7 -41 0 -42 9 -38 12 4 1 16 7 32 13 36 7
5 7 8 -1 8 -6 0 -14 -3 -17 -7z"/>
<path d="M3471 1935 c0 -34 2 -36 9 -17 5 12 14 22 19 22 5 0 12 -10 14 -22 4
-20 4 -19 6 5 1 20 -4 27 -18 27 -11 0 -22 6 -24 13 -3 6 -5 -6 -6 -28z"/>
<path d="M3620 1945 c0 -8 5 -15 10 -15 6 0 10 7 10 15 0 8 -4 15 -10 15 -5 0
-10 -7 -10 -15z"/>
<path d="M3415 1940 c-3 -6 1 -13 9 -16 9 -3 13 -10 10 -15 -3 -5 0 -9 5 -9
14 0 14 17 1 25 -6 4 -8 11 -5 16 4 5 2 9 -4 9 -5 0 -13 -5 -16 -10z"/>
<path d="M3542 1925 c0 -16 2 -22 5 -12 2 9 2 23 0 30 -3 6 -5 -1 -5 -18z"/>
<path d="M1270 1660 l0 -120 590 0 590 0 0 120 0 120 -590 0 -590 0 0 -120z
m1158 3 l3 -93 -566 0 -565 0 0 95 0 95 563 -2 562 -3 3 -92z"/>
<path d="M1410 1427 c-14 -7 -31 -25 -40 -40 -13 -24 -13 -30 0 -54 31 -55
108 -57 130 -4 26 63 -33 126 -90 98z"/>
<path d="M2633 1430 c-26 -11 -43 -40 -43 -74 0 -63 89 -90 129 -40 28 36 26
60 -8 95 -31 31 -42 33 -78 19z"/>
<path d="M1109 1367 c-37 -19 -53 -60 -37 -94 28 -60 111 -59 132 0 22 61 -40
121 -95 94z"/>
<path d="M2910 1350 c-24 -24 -26 -67 -4 -98 20 -28 83 -31 107 -4 23 25 22
85 -1 105 -25 23 -78 21 -102 -3z"/>
<path d="M2305 1325 c-14 -13 -25 -36 -25 -50 0 -33 42 -75 75 -75 29 0 75 40
75 65 0 29 -29 72 -52 79 -38 10 -48 7 -73 -19z"/>
<path d="M1692 1317 c-61 -65 22 -153 96 -101 28 20 31 83 4 107 -27 24 -74
21 -100 -6z"/>
<path d="M3150 1183 c-51 -19 -68 -85 -30 -123 61 -61 159 33 103 98 -20 23
-50 33 -73 25z"/>
<path d="M872 1147 c-46 -49 -11 -121 55 -115 66 6 93 77 47 122 -23 24 -77
20 -102 -7z"/>
<path d="M2140 903 c-32 -11 -50 -37 -50 -70 0 -88 118 -102 144 -16 16 50
-44 103 -94 86z"/>
<path d="M1892 880 c-45 -42 -9 -130 53 -130 33 0 75 42 75 75 0 35 -42 75
-78 75 -15 0 -38 -9 -50 -20z"/>
</g>
</svg>
